<svg 
 xmlns="http://www.w3.org/2000/svg"
 xmlns:xlink="http://www.w3.org/1999/xlink"
 width="68px" height="67px">
<path fill-rule="evenodd"  fill="rgb(255, 255, 255)"
 d="M66.513,56.389 L54.187,44.96 C56.992,39.662 58.617,34.412 58.617,28.781 C58.617,12.909 45.714,0.41 29.797,0.41 C13.880,0.41 0.977,12.909 0.977,28.781 C0.977,44.654 13.880,57.522 29.797,57.522 C35.410,57.522 40.647,55.920 45.77,53.152 L57.418,65.459 C59.388,67.424 62.582,67.424 64.552,65.459 L66.513,63.503 C68.483,61.539 68.483,58.353 66.513,56.389 ZM29.797,49.568 C18.285,49.568 8.953,40.261 8.953,28.781 C8.953,17.302 18.285,7.995 29.797,7.995 C41.309,7.995 50.641,17.302 50.641,28.781 C50.641,40.261 41.309,49.568 29.797,49.568 Z"/>
</svg>
