<svg width="6.875em" height="7em" viewBox="0 0 110 112">
<path
d="M18.628,22.785 L68.705,22.785 L68.705,30.600 L18.628,30.600 L18.628,22.785 L18.628,22.785 ZM109.994,82.556 L100.350,62.128 L65.321,62.32 L55.614,82.556 C55.611,82.556 55.612,97.302 55.612,98.817 C55.612,101.410 57.178,103.656 59.410,104.656 L59.410,105.956 C59.410,109.276 62.126,111.993 65.444,111.993 C68.763,111.993 71.480,109.276 71.480,105.956 L71.480,105.209 L94.128,105.209 C94.128,108.885 96.196,111.993 100.163,111.993 C103.481,111.993 106.198,109.276 106.198,105.956 L106.198,104.656 C108.430,103.656 109.996,101.410 109.996,98.817 L109.994,82.556 L109.994,82.556 ZM66.54,96.986 C63.423,96.986 61.292,94.855 61.292,92.224 C61.292,89.594 63.423,87.462 66.54,87.462 C68.684,87.462 70.815,89.594 70.815,92.224 C70.815,94.855 68.684,96.986 66.54,96.986 L66.54,96.986 ZM99.554,96.986 C96.924,96.986 94.793,94.855 94.793,92.224 C94.793,89.594 96.924,87.462 99.554,87.462 C102.184,87.462 104.315,89.594 104.315,92.224 C104.315,94.855 102.184,96.986 99.554,96.986 L99.554,96.986 ZM62.688,82.556 L69.361,68.959 L96.247,68.959 L102.920,82.556 L62.688,82.556 L62.688,82.556 ZM35.762,71.644 L37.735,71.607 L52.81,99.687 L47.124,99.687 L35.762,71.644 L35.762,71.644 ZM28.936,71.644 L24.398,71.607 L23.459,76.678 L29.926,76.678 L28.936,71.644 L28.936,71.644 ZM23.98,78.632 L21.583,86.821 L31.920,86.821 L30.310,78.632 L23.98,78.632 L23.98,78.632 ZM21.55,89.676 L19.202,99.687 L34.451,99.687 L32.482,89.676 L21.55,89.676 L21.55,89.676 ZM18.407,71.644 L16.436,71.607 L8.11,88.95 L8.11,14.504 C8.11,10.940 10.940,8.10 14.504,8.10 L72.829,8.10 C76.392,8.10 79.321,10.940 79.321,14.504 L79.321,55.671 L87.336,55.689 L87.333,14.504 C87.333,6.516 80.815,0.3 72.829,0.3 L14.504,0.3 C6.518,0.3 0.0,6.516 0.0,14.504 L0.0,97.485 C0.0,105.473 6.517,111.993 14.504,111.993 L53.133,111.993 L52.833,103.979 L14.504,103.979 C10.940,103.979 8.11,101.49 8.11,97.485 L8.11,97.305 L18.407,71.644 L18.407,71.644 ZM18.628,48.630 L68.617,48.630 L68.635,56.445 L18.628,56.445 L18.628,48.630 L18.628,48.630 ZM18.628,36.9 L68.705,36.9 L68.705,43.822 L18.628,43.822 L18.628,36.9 L18.628,36.9 Z"
/>
</svg>
