<svg
width="8.375em"
height="7.8125em"
viewBox="0 0 134 125"
>
<path
d="M88.330,40.850 C81.500,43.457 71.48,45.773 68.228,39.601 C67.714,38.658 66.983,36.917 64.949,37.249 C56.103,38.386 53.57,50.189 45.224,48.95 C40.516,45.342 33.890,47.635 29.875,50.760 C26.773,53.175 23.578,62.430 24.994,66.569 C27.60,72.615 23.795,77.272 29.151,81.517 C33.790,85.195 32.430,87.647 38.735,87.974 C46.516,88.376 53.720,86.530 55.598,95.447 C55.755,96.190 55.932,97.28 56.368,97.620 C56.441,97.719 57.974,100.151 59.527,100.191 C62.665,100.274 66.143,100.365 69.457,102.666 C72.406,104.713 73.720,105.180 75.245,108.166 C79.440,116.377 82.765,118.623 89.877,112.51 C102.229,100.638 100.615,121.106 108.700,97.640 C111.325,90.17 108.3,82.84 122.886,83.348 C129.130,84.59 124.334,82.452 125.301,77.403 C125.912,74.221 128.52,70.336 126.612,69.24 C124.628,67.215 124.160,66.444 120.460,64.46 C110.643,57.682 127.422,50.769 119.79,44.960 C122.901,42.485 123.762,41.160 124.117,38.554 C131.375,42.699 131.363,49.210 128.806,53.670 C122.452,61.703 125.745,58.329 131.986,63.129 C135.999,66.787 130.20,74.923 132.431,77.950 C134.518,83.989 134.179,87.702 131.626,89.490 C127.978,92.46 122.251,91.55 122.229,91.301 C117.583,90.712 117.952,95.319 116.260,100.229 C105.661,130.997 103.162,110.603 95.282,117.883 C84.69,128.246 74.869,124.991 68.121,111.784 C65.531,106.714 65.164,108.297 59.340,108.145 C55.705,108.50 52.318,105.568 49.931,102.329 C44.736,95.276 52.228,96.646 38.329,95.927 C24.436,95.207 28.697,91.333 24.183,87.755 C15.498,80.871 20.283,77.465 17.432,69.126 C15.902,64.651 16.737,60.151 19.63,56.186 C19.490,49.17 27.376,42.74 32.910,40.187 C44.251,36.323 44.280,42.552 48.882,38.750 C53.880,33.719 53.469,31.307 63.668,29.501 C68.946,28.640 71.637,30.758 73.369,32.822 C76.868,36.993 81.293,34.317 86.265,33.106 C86.18,36.854 85.656,37.591 88.330,40.850 L88.330,40.850 ZM79.184,21.537 L79.184,14.447 C79.184,10.896 76.259,7.977 72.703,7.977 L14.478,7.977 C10.921,7.977 7.998,10.896 7.998,14.447 L7.998,97.123 C7.998,100.673 10.921,103.606 14.478,103.606 L42.466,103.606 C45.277,110.410 45.307,109.159 51.840,111.869 L14.178,111.869 C6.206,111.869 0.0,105.81 0.0,97.123 L0.0,14.447 C0.0,6.489 6.507,0.6 14.478,0.6 L72.703,0.6 C80.676,0.6 87.182,6.489 87.182,14.447 L87.182,21.221 C82.742,20.643 83.795,19.502 79.184,21.537 L79.184,21.537 ZM61.155,83.115 C58.490,80.841 56.10,78.728 53.237,76.606 C50.140,74.232 48.139,70.494 48.139,66.292 C48.139,59.117 53.968,53.299 61.155,53.299 C68.343,53.299 74.171,59.117 74.171,66.292 C74.171,70.460 72.201,74.173 69.148,76.546 C66.351,78.721 63.863,80.786 61.155,83.115 L61.155,83.115 ZM61.155,71.300 C63.927,71.300 66.172,69.59 66.172,66.292 C66.172,63.526 63.927,61.284 61.155,61.284 C58.383,61.284 56.137,63.525 56.137,66.292 C56.137,69.59 58.383,71.300 61.155,71.300 L61.155,71.300 ZM65.123,84.690 C65.348,86.791 69.633,88.161 73.84,88.876 L71.368,96.716 C64.954,95.381 57.895,92.124 57.187,85.531 L61.754,87.101 L65.123,84.690 L65.123,84.690 ZM81.123,89.560 C83.792,89.348 84.242,89.424 85.294,87.237 L93.792,88.983 C91.484,95.332 88.330,98.580 79.375,97.537 L81.123,89.560 L81.123,89.560 ZM88.136,79.669 C88.341,76.716 78.868,68.29 82.941,57.814 C84.105,54.895 89.905,51.953 91.702,54.78 L90.895,61.265 C89.291,60.969 89.136,63.963 89.340,65.232 C89.934,68.920 96.934,73.329 95.894,81.263 L88.136,79.669 L88.136,79.669 ZM99.179,54.92 C101.377,55.35 101.755,54.915 102.257,51.329 L105.852,53.193 L110.162,51.204 C108.783,61.56 104.365,63.869 97.463,61.773 L99.179,54.92 L99.179,54.92 ZM105.749,48.155 C103.85,45.882 100.604,43.768 97.832,41.646 C94.734,39.273 92.733,35.534 92.733,31.333 C92.733,24.157 98.561,18.340 105.749,18.340 C112.936,18.340 118.764,24.157 118.764,31.333 C118.764,35.500 116.791,39.216 113.742,41.587 C110.947,43.759 108.458,45.826 105.749,48.155 L105.749,48.155 ZM105.749,36.341 C108.520,36.341 110.766,34.100 110.766,31.333 C110.766,28.566 108.520,26.324 105.749,26.324 C102.976,26.324 100.732,28.565 100.732,31.333 C100.732,34.100 102.977,36.341 105.749,36.341 L105.749,36.341 Z"
/>
</svg>
