<svg width="7.625em" height="7.5em" viewBox="0 0 122 120">
<path
d="M88.707,43.838 L87.929,41.921 L77.949,0.2 L11.601,0.2 L1.396,42.868 L0.3,44.263 L0.3,82.503 C0.3,88.883 3.330,94.765 8.739,98.119 L8.739,103.739 C8.739,107.406 11.751,110.407 15.431,110.407 L15.432,110.407 C19.111,110.407 22.124,107.405 22.124,103.739 L22.124,100.883 L53.913,100.883 L53.914,92.891 L18.445,92.891 C12.717,92.891 8.17,88.209 8.17,82.503 L8.17,49.912 L80.686,49.912 L80.686,56.935 L88.707,56.943 L88.707,43.838 L88.707,43.838 ZM121.989,87.484 L111.293,64.917 L72.448,64.812 L61.682,87.484 C61.678,87.484 61.680,103.771 61.680,105.444 C61.680,108.309 63.416,110.790 65.892,111.894 L65.892,113.331 C65.892,116.998 68.905,119.999 72.584,119.999 C76.264,119.999 79.277,116.998 79.277,113.331 L79.277,112.506 L104.394,112.506 C104.394,116.566 106.688,119.999 111.87,119.999 C114.767,119.999 117.779,116.998 117.779,113.331 L117.779,111.894 C120.255,110.790 121.991,108.309 121.991,105.444 L121.989,87.484 L121.989,87.484 ZM73.260,103.423 C70.343,103.423 67.979,101.68 67.979,98.162 C67.979,95.257 70.343,92.902 73.260,92.902 C76.176,92.902 78.540,95.257 78.540,98.162 C78.540,101.68 76.176,103.423 73.260,103.423 L73.260,103.423 ZM110.411,103.423 C107.494,103.423 105.131,101.68 105.131,98.162 C105.131,95.257 107.494,92.902 110.411,92.902 C113.327,92.902 115.691,95.257 115.691,98.162 C115.691,101.68 113.327,103.423 110.411,103.423 L110.411,103.423 ZM69.527,87.484 L76.927,72.461 L106.744,72.461 L114.144,87.484 L69.527,87.484 L69.527,87.484 ZM9.612,41.921 L17.737,7.788 L71.815,7.788 L79.939,41.921 L9.612,41.921 L9.612,41.921 ZM25.83,87.640 C18.744,87.640 13.606,82.519 13.606,76.205 C13.606,69.890 18.745,64.769 25.83,64.769 C31.421,64.769 36.561,69.889 36.561,76.205 C36.561,82.519 31.422,87.640 25.83,87.640 L25.83,87.640 ZM25.83,79.648 C26.994,79.648 28.540,78.107 28.540,76.205 C28.540,74.301 26.994,72.761 25.83,72.761 C23.174,72.761 21.627,74.302 21.627,76.205 C21.627,78.107 23.173,79.648 25.83,79.648 L25.83,79.648 ZM35.585,12.638 L54.347,12.638 C59.559,12.638 59.559,20.541 54.347,20.541 L35.585,20.541 C30.373,20.541 30.373,12.638 35.585,12.638 L35.585,12.638 Z"
/>
</svg>
