<svg width="7.125em" height="7em" viewBox="0 0 114 112">
<path
d="M87.223,36.324 L79.218,43.731 L79.218,14.505 C79.218,10.941 76.293,8.11 72.734,8.11 L14.485,8.11 C10.927,8.11 8.2,10.941 8.2,14.505 L8.2,97.487 C8.2,101.51 10.927,103.980 14.485,103.980 L72.734,103.980 C76.293,103.980 79.218,101.51 79.218,97.487 L79.218,86.802 L87.223,79.369 L87.223,97.468 C87.223,105.455 80.710,111.994 72.734,111.994 L14.485,111.994 C6.510,111.994 0.0,105.474 0.0,97.487 L0.0,14.505 C0.0,6.517 6.510,0.2 14.485,0.2 L72.734,0.2 C80.710,0.2 87.220,6.517 87.220,14.505 L87.223,36.324 L87.223,36.324 ZM63.914,67.480 L100.16,34.956 C103.207,32.82 107.978,31.15 111.13,34.54 L111.13,34.54 C114.48,37.93 114.999,42.96 111.915,45.68 L63.40,92.146 L42.405,65.87 C39.802,61.673 40.807,57.170 43.841,54.131 L43.841,54.131 C46.875,51.92 52.171,52.165 54.781,55.569 L63.914,67.480 L63.914,67.480 ZM18.604,22.787 L68.616,22.787 L68.616,30.600 L18.604,30.600 L18.604,22.787 L18.604,22.787 ZM18.604,36.10 L68.616,36.10 L68.616,43.823 L18.604,43.823 L18.604,36.10 L18.604,36.10 Z"
/>
</svg>
